<svg xmlns="http://www.w3.org/2000/svg" viewBox="0 0 64 64"><defs><style>.cls-1{fill:#e1e4ed;}.cls-2{fill:#ade1fa;}.cls-3{fill:#cdd2e1;}.cls-4{fill:#8ed8f8;}.cls-5{fill:#d4effc;}.cls-6{fill:#f26973;}.cls-7{fill:#f3b55e;}.cls-8{fill:#ffca6b;}.cls-9{fill:#96796d;}.cls-10{fill:#fdddd7;}.cls-11{fill:#f2cac1;}.cls-12{fill:#ffe474;}.cls-13{fill:none;stroke:#393045;stroke-linejoin:round;stroke-width:2px;}</style></defs><title>04-communication</title><g id="_04-communication" data-name="04-communication"><path class="cls-1" d="M50,55v4a4,4,0,0,1-4,4H18a4,4,0,0,1-4-4V55Z"/><path class="cls-1" d="M50,5V9H14V5a4,4,0,0,1,4-4H46A4,4,0,0,1,50,5Z"/><rect class="cls-2" x="14" y="9" width="36" height="46"/><path class="cls-3" d="M20,59V55H14v4a4,4,0,0,0,4,4h6A4,4,0,0,1,20,59Z"/><path class="cls-3" d="M24,1H18a4,4,0,0,0-4,4V9h6V5A4,4,0,0,1,24,1Z"/><rect class="cls-4" x="14" y="9" width="6" height="46"/><rect class="cls-5" x="46" y="9" width="4" height="46"/><path class="cls-6" d="M43,33.46A3.989,3.989,0,0,1,41,34h-.55a18.921,18.921,0,0,0,.53-4c.01-.32.02-.66.02-1V27l.48-.97A4,4,0,0,1,43,33.46Z"/><path class="cls-6" d="M23.02,30a18.921,18.921,0,0,0,.53,4H23a4,4,0,0,1-.48-7.97L23,27v2C23,29.34,23.01,29.68,23.02,30Z"/><polygon class="cls-7" points="32 48 29 51 26 48 26 44 28 44 32 48"/><polygon class="cls-7" points="39 44 39 47 35 51 32 48 36 44 39 44"/><path class="cls-8" d="M44,48v7H32V48l3,3,4-4V44h1A4,4,0,0,1,44,48Z"/><path class="cls-9" d="M36.81,29.8C28,28.86,28,25,28,25c0,4.81-4.63,4.99-4.98,5-.01-.32-.02-.66-.02-1V27l-.48-.97L22,25a10,10,0,0,1,20,0l-.52,1.03L41,27v2c0,.34-.01.68-.02,1A39.227,39.227,0,0,1,36.81,29.8Z"/><path class="cls-10" d="M36.81,29.8a39.227,39.227,0,0,0,4.17.2,18.921,18.921,0,0,1-.53,4,10.408,10.408,0,0,1-1.86,4A7.336,7.336,0,0,1,36,40.12a9.531,9.531,0,0,1-8,0c-1.93-.95-3.62-2.81-4.45-6.12a18.921,18.921,0,0,1-.53-4c.35-.01,4.98-.19,4.98-5C28,25,28,28.86,36.81,29.8Z"/><path class="cls-11" d="M36,40.12V44l-4,4-4-4V40.12a9.531,9.531,0,0,0,8,0Z"/><path class="cls-12" d="M32,48v7H20V48a4,4,0,0,1,4-4h2v4l3,3Z"/><path class="cls-13" d="M50,55v4a4,4,0,0,1-4,4H18a4,4,0,0,1-4-4V5a4,4,0,0,1,4-4H46a4,4,0,0,1,4,4V55Z"/><polyline class="cls-13" points="14 9 32 9 50 9"/><line class="cls-13" x1="44" y1="55" x2="50" y2="55"/><line class="cls-13" x1="14" y1="55" x2="20" y2="55"/><line class="cls-13" x1="28" y1="59" x2="36" y2="59"/><line class="cls-13" x1="28" y1="5" x2="36" y2="5"/><path class="cls-13" d="M22.52,26.03,23,27v2c0,.34.01.68.02,1a18.921,18.921,0,0,0,.53,4c.83,3.31,2.52,5.17,4.45,6.12a9.531,9.531,0,0,0,8,0A7.336,7.336,0,0,0,38.59,38a10.408,10.408,0,0,0,1.86-4,18.921,18.921,0,0,0,.53-4c.01-.32.02-.66.02-1V27l.48-.97L42,25a10,10,0,0,0-20,0Z"/><path class="cls-13" d="M23,30h.02c.35-.01,4.98-.19,4.98-5,0,0,0,3.86,8.81,4.8a39.227,39.227,0,0,0,4.17.2H41"/><path class="cls-13" d="M34,25s0,1.91,2.81,4.8c.06.06.12.13.19.2"/><path class="cls-13" d="M41,26a3.866,3.866,0,0,1,.48.03A4,4,0,0,1,41,34H40"/><path class="cls-13" d="M23,26a3.866,3.866,0,0,0-.48.03A4,4,0,0,0,23,34h1"/><path class="cls-13" d="M45,30V25a13,13,0,0,0-26,0v5"/><polyline class="cls-13" points="43 33 43 33.46 43 36 41 38 38.59 38 34 38"/><path class="cls-13" d="M36,40v4h4a4,4,0,0,1,4,4v7H20V48a4,4,0,0,1,4-4h4V40"/><polyline class="cls-13" points="36 44 32 48 28 44"/><polyline class="cls-13" points="39 44 39 47 35 51 32 48 29 51 26 48 26 44"/><line class="cls-13" x1="32" y1="48" x2="32" y2="55"/></g></svg>