<svg xmlns="http://www.w3.org/2000/svg" viewBox="0 0 64 64"><defs><style>.cls-1{fill:#afb4c8;}.cls-2{fill:#e1e4ed;}.cls-3{fill:#ade1fa;}.cls-4{fill:#cdd2e1;}.cls-5{fill:#8ed8f8;}.cls-6{fill:#d4effc;}.cls-7{fill:#99a1b1;}.cls-8{fill:#f26973;}.cls-9{fill:#ffca6b;}.cls-10{fill:#e65263;}.cls-11{fill:none;stroke:#393045;stroke-linejoin:round;stroke-width:2px;}</style></defs><title>22-bot</title><g id="_22-bot" data-name="22-bot"><polygon class="cls-1" points="41 47 43 55 21 55 23 47 41 47"/><path class="cls-2" d="M46,55a2.006,2.006,0,0,1,2,2,2.015,2.015,0,0,1-2,2H18a2.006,2.006,0,0,1-2-2,2.015,2.015,0,0,1,2-2H46Z"/><path class="cls-2" d="M63,41v2a4,4,0,0,1-4,4H5a4,4,0,0,1-4-4V41Z"/><path class="cls-3" d="M63,9V41H1V9A4,4,0,0,1,5,5H59A4,4,0,0,1,63,9Z"/><path class="cls-4" d="M7,43V41H1v2a4,4,0,0,0,4,4h6A4,4,0,0,1,7,43Z"/><path class="cls-5" d="M11,5H5A4,4,0,0,0,1,9V41H7V9A4,4,0,0,1,11,5Z"/><path class="cls-4" d="M57,43V41h6v2a4,4,0,0,1-4,4H53A4,4,0,0,0,57,43Z"/><path class="cls-6" d="M53,5h6a4,4,0,0,1,4,4V41H57V9A4,4,0,0,0,53,5Z"/><polygon class="cls-7" points="41 47 23 47 22 51 42 51 41 47"/><path class="cls-4" d="M18,59H46a2.015,2.015,0,0,0,2-2H16A2.006,2.006,0,0,0,18,59Z"/><path class="cls-1" d="M47,39v2H17V39a2.006,2.006,0,0,1,2-2H45A2.006,2.006,0,0,1,47,39Z"/><path class="cls-2" d="M41,29v5H35V31a2.006,2.006,0,0,0-2-2H31a2.006,2.006,0,0,0-2,2v3H23V18H41V29Zm-3-5a2,2,0,1,0-2,2A2.006,2.006,0,0,0,38,24Zm-8,0a2,2,0,1,0-2,2A2.006,2.006,0,0,0,30,24Z"/><path class="cls-8" d="M47,23v6a2.006,2.006,0,0,1-2,2H43a2.006,2.006,0,0,1-2-2V23a2.006,2.006,0,0,1,2-2h2A2.006,2.006,0,0,1,47,23Z"/><circle class="cls-9" cx="36" cy="24" r="2"/><polygon class="cls-7" points="37 34 37 37 27 37 27 34 29 34 35 34 37 34"/><path class="cls-8" d="M35,31v3H29V31a2.006,2.006,0,0,1,2-2h2A2.006,2.006,0,0,1,35,31Z"/><circle class="cls-9" cx="28" cy="24" r="2"/><path class="cls-8" d="M23,23v6a2.006,2.006,0,0,1-2,2H19a2.006,2.006,0,0,1-2-2V23a2.006,2.006,0,0,1,2-2h2A2.006,2.006,0,0,1,23,23Z"/><path class="cls-10" d="M45,21H43a1.923,1.923,0,0,0-.5.072A2,2,0,0,1,44,23v6a2,2,0,0,1-1.5,1.928A1.923,1.923,0,0,0,43,31h2a2.006,2.006,0,0,0,2-2V23A2.006,2.006,0,0,0,45,21Z"/><path class="cls-10" d="M21,21H19a1.923,1.923,0,0,0-.5.072A2,2,0,0,1,20,23v6a2,2,0,0,1-1.5,1.928A1.923,1.923,0,0,0,19,31h2a2.006,2.006,0,0,0,2-2V23A2.006,2.006,0,0,0,21,21Z"/><path class="cls-11" d="M23,47H5a4,4,0,0,1-4-4V9A4,4,0,0,1,5,5H59a4,4,0,0,1,4,4V43a4,4,0,0,1-4,4H41"/><polyline class="cls-11" points="21 55 23 47 41 47 43 55"/><path class="cls-11" d="M43,55h3a2.006,2.006,0,0,1,2,2,2.015,2.015,0,0,1-2,2H18a2.006,2.006,0,0,1-2-2,2.015,2.015,0,0,1,2-2H43Z"/><polyline class="cls-11" points="1 41 17 41 47 41 63 41"/><polyline class="cls-11" points="23 23 23 18 41 18 41 23"/><polyline class="cls-11" points="41 29 41 34 37 34 35 34 29 34 27 34 23 34 23 29"/><path class="cls-11" d="M44,21h1a2.006,2.006,0,0,1,2,2v6a2.006,2.006,0,0,1-2,2H43a2.006,2.006,0,0,1-2-2V23a2.006,2.006,0,0,1,2-2Z"/><path class="cls-11" d="M23,29a2.006,2.006,0,0,1-2,2H19a2.006,2.006,0,0,1-2-2V23a2.006,2.006,0,0,1,2-2h2a2.006,2.006,0,0,1,2,2Z"/><path class="cls-11" d="M44,21a12,12,0,0,0-24,0"/><path class="cls-11" d="M17,41V39a2.006,2.006,0,0,1,2-2H45a2.006,2.006,0,0,1,2,2v2"/><line class="cls-11" x1="27" y1="34" x2="27" y2="37"/><line class="cls-11" x1="37" y1="34" x2="37" y2="37"/><circle class="cls-11" cx="28" cy="24" r="2"/><circle class="cls-11" cx="36" cy="24" r="2"/><path class="cls-11" d="M29,34V31a2.006,2.006,0,0,1,2-2h2a2.006,2.006,0,0,1,2,2v3"/></g></svg>