<?xml version="1.0" encoding="utf-8"?>
<!-- Generator: Adobe Illustrator 22.0.1, SVG Export Plug-In . SVG Version: 6.00 Build 0)  -->
<svg version="1.1" id="Layer_1" xmlns="http://www.w3.org/2000/svg" xmlns:xlink="http://www.w3.org/1999/xlink" x="0px" y="0px"
	 viewBox="0 0 48 48" style="enable-background:new 0 0 48 48;" xml:space="preserve">
<style type="text/css">
	.st0{fill:#BFFFFF;}
	.st1{fill:#27C5E1;}
	.st2{fill:#49484A;}
	.st3{fill:#FFFFFF;}
</style>
<title>Computer with Box</title>
<g>
	<g>
		<g>
			<path class="st0" d="M0.6,17.8c0-1.3,1-2.3,2.3-2.3c1.3,0,2.3,1,2.3,2.3c0,1.3-1,2.3-2.3,2.3C1.6,20.1,0.6,19.1,0.6,17.8z"/>
		</g>
	</g>
	<g>
		<g>
			<path class="st0" d="M7.7,9.5c0-1.3,1-2.3,2.3-2.3c1.3,0,2.3,1,2.3,2.3c0,1.3-1,2.3-2.3,2.3C8.7,11.7,7.7,10.7,7.7,9.5z"/>
		</g>
	</g>
	<g>
		<g>
			<path class="st0" d="M35.8,9.5c0-1.3,1-2.3,2.3-2.3c1.3,0,2.3,1,2.3,2.3c0,1.3-1,2.3-2.3,2.3C36.8,11.7,35.8,10.7,35.8,9.5z"/>
		</g>
	</g>
	<g>
		<g>
			<path class="st0" d="M7.7,37.7c0-1.3,1-2.3,2.3-2.3c1.3,0,2.3,1,2.3,2.3c0,1.3-1,2.3-2.3,2.3C8.7,40,7.7,39,7.7,37.7z"/>
		</g>
	</g>
	<g>
		<g>
			<path class="st0" d="M35.8,37.7c0-1.3,1-2.3,2.3-2.3c1.3,0,2.3,1,2.3,2.3c0,1.3-1,2.3-2.3,2.3C36.8,40,35.8,39,35.8,37.7z"/>
		</g>
	</g>
	<g>
		<g>
			<path class="st0" d="M0.6,29.6c0-1.3,1-2.3,2.3-2.3c1.3,0,2.3,1,2.3,2.3s-1,2.3-2.3,2.3C1.6,31.9,0.6,30.8,0.6,29.6z"/>
		</g>
	</g>
	<g>
		<g>
			<path class="st0" d="M42.9,17.8c0-1.3,1-2.3,2.3-2.3c1.3,0,2.3,1,2.3,2.3c0,1.3-1,2.3-2.3,2.3C43.9,20.1,42.9,19.1,42.9,17.8z"/>
		</g>
	</g>
	<g>
		<g>
			<path class="st0" d="M42.9,29.6c0-1.3,1-2.3,2.3-2.3c1.3,0,2.3,1,2.3,2.3s-1,2.3-2.3,2.3C43.9,31.9,42.9,30.8,42.9,29.6z"/>
		</g>
	</g>
</g>
<g>
	<g>
		<path class="st1" d="M31.9,34.3H16.1c-1.5,0-2.7-1.2-2.7-2.7V15.7c0-1.5,1.2-2.7,2.7-2.7h15.9c1.5,0,2.7,1.2,2.7,2.7v15.9
			C34.7,33,33.4,34.3,31.9,34.3z"/>
	</g>
</g>
<g>
	<g>
		<path class="st2" d="M31.6,34.8H16.4c-2,0-3.7-1.6-3.7-3.7V16c0-2,1.6-3.7,3.7-3.7h15.1c2,0,3.7,1.6,3.7,3.7v15.1
			C35.2,33.2,33.6,34.8,31.6,34.8z M16.4,13.5c-1.4,0-2.5,1.1-2.5,2.5v15.1c0,1.4,1.1,2.5,2.5,2.5h15.1c1.4,0,2.5-1.1,2.5-2.5V16
			c0-1.4-1.1-2.5-2.5-2.5H16.4z"/>
	</g>
</g>
<g>
	<g>
		<path class="st2" d="M31.5,12.9h-1.1c0-3.5-2.9-6.4-6.4-6.4c-3.5,0-6.4,2.9-6.4,6.4h-1.1c0-4.1,3.4-7.5,7.5-7.5
			C28.1,5.4,31.5,8.8,31.5,12.9z"/>
	</g>
</g>
<g>
	<g>
		<path class="st3" d="M24,22.9c-1.6,0-2.8-1.3-2.8-2.8c0-1.6,1.3-2.8,2.8-2.8c1.6,0,2.8,1.3,2.8,2.8C26.8,21.7,25.6,22.9,24,22.9z
			 M24,18.4c-0.9,0-1.7,0.8-1.7,1.7c0,0.9,0.8,1.7,1.7,1.7c0.9,0,1.7-0.8,1.7-1.7C25.7,19.2,24.9,18.4,24,18.4z"/>
	</g>
</g>
<g>
	<g>
		<path class="st2" d="M2.9,20.7c-1.6,0-2.8-1.3-2.8-2.8C0,16.3,1.3,15,2.9,15c1.6,0,2.8,1.3,2.8,2.8C5.7,19.4,4.4,20.7,2.9,20.7z
			 M2.9,16.1c-0.9,0-1.7,0.8-1.7,1.7c0,0.9,0.8,1.7,1.7,1.7c0.9,0,1.7-0.8,1.7-1.7C4.6,16.9,3.8,16.1,2.9,16.1z"/>
	</g>
</g>
<g>
	<g>
		<path class="st2" d="M9.9,12.3c-1.6,0-2.8-1.3-2.8-2.8c0-1.6,1.3-2.8,2.8-2.8c1.6,0,2.8,1.3,2.8,2.8C12.8,11,11.5,12.3,9.9,12.3z
			 M9.9,7.8C9,7.8,8.2,8.5,8.2,9.5c0,0.9,0.8,1.7,1.7,1.7c0.9,0,1.7-0.8,1.7-1.7C11.6,8.5,10.9,7.8,9.9,7.8z"/>
	</g>
</g>
<g>
	<g>
		<path class="st2" d="M38.1,12.3c-1.6,0-2.8-1.3-2.8-2.8c0-1.6,1.3-2.8,2.8-2.8c1.6,0,2.8,1.3,2.8,2.8C40.9,11,39.6,12.3,38.1,12.3
			z M38.1,7.8c-0.9,0-1.7,0.8-1.7,1.7c0,0.9,0.8,1.7,1.7,1.7c0.9,0,1.7-0.8,1.7-1.7C39.8,8.5,39,7.8,38.1,7.8z"/>
	</g>
</g>
<g>
	<g>
		<path class="st2" d="M9.9,40.6c-1.6,0-2.8-1.3-2.8-2.8c0-1.6,1.3-2.8,2.8-2.8c1.6,0,2.8,1.3,2.8,2.8C12.8,39.3,11.5,40.6,9.9,40.6
			z M9.9,36c-0.9,0-1.7,0.8-1.7,1.7c0,0.9,0.8,1.7,1.7,1.7c0.9,0,1.7-0.8,1.7-1.7C11.6,36.8,10.9,36,9.9,36z"/>
	</g>
</g>
<g>
	<g>
		<path class="st2" d="M38.1,40.6c-1.6,0-2.8-1.3-2.8-2.8c0-1.6,1.3-2.8,2.8-2.8c1.6,0,2.8,1.3,2.8,2.8
			C40.9,39.3,39.6,40.6,38.1,40.6z M38.1,36c-0.9,0-1.7,0.8-1.7,1.7c0,0.9,0.8,1.7,1.7,1.7c0.9,0,1.7-0.8,1.7-1.7
			C39.8,36.8,39,36,38.1,36z"/>
	</g>
</g>
<g>
	<g>
		<path class="st2" d="M2.9,32.4c-1.6,0-2.8-1.3-2.8-2.8c0-1.6,1.3-2.8,2.8-2.8c1.6,0,2.8,1.3,2.8,2.8C5.7,31.2,4.4,32.4,2.9,32.4z
			 M2.9,27.9c-0.9,0-1.7,0.8-1.7,1.7c0,0.9,0.8,1.7,1.7,1.7c0.9,0,1.7-0.8,1.7-1.7C4.6,28.7,3.8,27.9,2.9,27.9z"/>
	</g>
</g>
<g>
	<g>
		<path class="st2" d="M45.1,20.7c-1.6,0-2.8-1.3-2.8-2.8c0-1.6,1.3-2.8,2.8-2.8c1.6,0,2.8,1.3,2.8,2.8C48,19.4,46.7,20.7,45.1,20.7
			z M45.1,16.1c-0.9,0-1.7,0.8-1.7,1.7c0,0.9,0.8,1.7,1.7,1.7s1.7-0.8,1.7-1.7C46.8,16.9,46.1,16.1,45.1,16.1z"/>
	</g>
</g>
<g>
	<g>
		<path class="st2" d="M45.1,32.4c-1.6,0-2.8-1.3-2.8-2.8c0-1.6,1.3-2.8,2.8-2.8c1.6,0,2.8,1.3,2.8,2.8C48,31.2,46.7,32.4,45.1,32.4
			z M45.1,27.9c-0.9,0-1.7,0.8-1.7,1.7c0,0.9,0.8,1.7,1.7,1.7s1.7-0.8,1.7-1.7C46.8,28.7,46.1,27.9,45.1,27.9z"/>
	</g>
</g>
<g>
	<g>
		<path class="st3" d="M22.6,30.2h-0.8c-0.3,0-0.6-0.3-0.6-0.6c0-0.3,0.3-0.6,0.6-0.6h0.8c0.5,0,0.9-0.4,0.9-0.9v-5.8
			c0-0.3,0.3-0.6,0.6-0.6c0.3,0,0.6,0.3,0.6,0.6v5.8C24.6,29.3,23.7,30.2,22.6,30.2z"/>
	</g>
</g>
<g>
	<g>
		<path class="st3" d="M25.8,26.5H24c-0.3,0-0.6-0.3-0.6-0.6c0-0.3,0.3-0.6,0.6-0.6h1.8c0.3,0,0.6,0.3,0.6,0.6
			C26.4,26.3,26.1,26.5,25.8,26.5z"/>
	</g>
</g>
<g>
	<g>
		<path class="st2" d="M9.9,24.3H6c-0.3,0-0.6-0.3-0.6-0.6c0-0.3,0.3-0.6,0.6-0.6h4c0.3,0,0.6,0.3,0.6,0.6
			C10.5,24,10.2,24.3,9.9,24.3z"/>
	</g>
</g>
<g>
	<g>
		<path class="st2" d="M3.2,24.3H2.6C2.3,24.3,2,24,2,23.7c0-0.3,0.3-0.6,0.6-0.6h0.6c0.3,0,0.6,0.3,0.6,0.6
			C3.7,24,3.5,24.3,3.2,24.3z"/>
	</g>
</g>
<g>
	<g>
		<path class="st2" d="M42,24.3h-4c-0.3,0-0.6-0.3-0.6-0.6c0-0.3,0.3-0.6,0.6-0.6h4c0.3,0,0.6,0.3,0.6,0.6
			C42.6,24,42.3,24.3,42,24.3z"/>
	</g>
</g>
<g>
	<g>
		<path class="st2" d="M9.9,18.4H5.1c-0.3,0-0.6-0.3-0.6-0.6c0-0.3,0.3-0.6,0.6-0.6h4.8c0.3,0,0.6,0.3,0.6,0.6
			C10.5,18.1,10.2,18.4,9.9,18.4z"/>
	</g>
</g>
<g>
	<g>
		<path class="st2" d="M42.9,18.4h-4.8c-0.3,0-0.6-0.3-0.6-0.6c0-0.3,0.3-0.6,0.6-0.6h4.8c0.3,0,0.6,0.3,0.6,0.6
			C43.4,18.1,43.2,18.4,42.9,18.4z"/>
	</g>
</g>
<g>
	<g>
		<path class="st2" d="M9.9,30.2H5.1c-0.3,0-0.6-0.3-0.6-0.6c0-0.3,0.3-0.6,0.6-0.6h4.8c0.3,0,0.6,0.3,0.6,0.6
			C10.5,29.9,10.2,30.2,9.9,30.2z"/>
	</g>
</g>
<g>
	<g>
		<path class="st2" d="M42.9,30.2h-4.8c-0.3,0-0.6-0.3-0.6-0.6c0-0.3,0.3-0.6,0.6-0.6h4.8c0.3,0,0.6,0.3,0.6,0.6
			C43.4,29.9,43.2,30.2,42.9,30.2z"/>
	</g>
</g>
<g>
	<g>
		<path class="st2" d="M45.4,24.3h-0.6c-0.3,0-0.6-0.3-0.6-0.6c0-0.3,0.3-0.6,0.6-0.6h0.6c0.3,0,0.6,0.3,0.6,0.6
			C46,24,45.7,24.3,45.4,24.3z"/>
	</g>
</g>
<g>
	<g>
		<path class="st2" d="M35.8,38.3h-4c-0.3,0-0.6-0.3-0.6-0.6c0-0.3,0.3-0.6,0.6-0.6h4c0.3,0,0.6,0.3,0.6,0.6
			C36.4,38.1,36.1,38.3,35.8,38.3z"/>
	</g>
</g>
<g>
	<g>
		<path class="st2" d="M29,38.3h-0.6c-0.3,0-0.6-0.3-0.6-0.6c0-0.3,0.3-0.6,0.6-0.6H29c0.3,0,0.6,0.3,0.6,0.6
			C29.6,38.1,29.3,38.3,29,38.3z"/>
	</g>
</g>
<g>
	<g>
		<path class="st2" d="M16.2,38.3h-4c-0.3,0-0.6-0.3-0.6-0.6c0-0.3,0.3-0.6,0.6-0.6h4c0.3,0,0.6,0.3,0.6,0.6
			C16.7,38.1,16.5,38.3,16.2,38.3z"/>
	</g>
</g>
<g>
	<g>
		<path class="st2" d="M25.6,38.3h-3.2c-0.3,0-0.6-0.3-0.6-0.6c0-0.3,0.3-0.6,0.6-0.6h3.2c0.3,0,0.6,0.3,0.6,0.6
			C26.1,38.1,25.9,38.3,25.6,38.3z"/>
	</g>
</g>
<g>
	<g>
		<path class="st2" d="M19.6,38.3H19c-0.3,0-0.6-0.3-0.6-0.6c0-0.3,0.3-0.6,0.6-0.6h0.6c0.3,0,0.6,0.3,0.6,0.6
			C20.1,38.1,19.9,38.3,19.6,38.3z"/>
	</g>
</g>
<g>
	<g>
		<path class="st2" d="M31.6,34.8H16.4c-2,0-3.7-1.6-3.7-3.7V16c0-2,1.6-3.7,3.7-3.7h15.1c2,0,3.7,1.6,3.7,3.7v15.1
			C35.2,33.2,33.6,34.8,31.6,34.8z M16.4,13.5c-1.4,0-2.5,1.1-2.5,2.5v15.1c0,1.4,1.1,2.5,2.5,2.5h15.1c1.4,0,2.5-1.1,2.5-2.5V16
			c0-1.4-1.1-2.5-2.5-2.5H16.4z"/>
	</g>
</g>
<g>
	<g>
		<path class="st3" d="M15.7,26.4c-0.3,0-0.6-0.3-0.6-0.6v-8.5c0-0.3,0.3-0.6,0.6-0.6c0.3,0,0.6,0.3,0.6,0.6v8.5
			C16.3,26.1,16.1,26.4,15.7,26.4z"/>
	</g>
</g>
<g>
	<g>
		<path class="st3" d="M15.7,30.7c-0.3,0-0.6-0.3-0.6-0.6v-1.9c0-0.3,0.3-0.6,0.6-0.6c0.3,0,0.6,0.3,0.6,0.6v1.9
			C16.3,30.5,16.1,30.7,15.7,30.7z"/>
	</g>
</g>
</svg>
