
<svg xmlns="http://www.w3.org/2000/svg" width="48" height="48" viewBox="0 0 48 48"><defs><style>.cls-1{fill:#a4b0c0;}.cls-2{fill:#f1f2f2;}.cls-3{fill:#d0d7df;}.cls-4{fill:#fed049;}.cls-5{fill:none;stroke:#474c54;stroke-linecap:round;stroke-linejoin:round;stroke-width:2px;}</style></defs><title>28-Online advertising</title><g id="_28-Online_advertising" data-name="28-Online advertising"><path class="cls-1" d="M47,5V9H1V5A4,4,0,0,1,5,1H43S47,1,47,5Z"/><path class="cls-2" d="M47,9V43a4,4,0,0,1-4,4H5a4,4,0,0,1-4-4V9Z"/><path class="cls-3" d="M22,35v6a1,1,0,0,1-1,1H19a.979.979,0,0,1-1-1V35Z"/><path class="cls-1" d="M40,16V36a1,1,0,0,1-1,1H35a1,1,0,0,1-1-1V16a1,1,0,0,1,1-1h4A1,1,0,0,1,40,16Z"/><path class="cls-4" d="M27,20V34a1,1,0,0,1-1,1H14a1,1,0,0,1-1-1V30l-3-1V23l3-1V18a1,1,0,0,1,1-1H26a1,1,0,0,1,1,1Z"/><polygon class="cls-3" points="34 30 34 35 27 32 27 20 34 17 34 30"/><rect class="cls-2" x="17" y="26" width="6" height="4"/><path class="cls-5" d="M47,5c0-4-4-4-4-4H5A4,4,0,0,0,1,5V43a4,4,0,0,0,4,4H43a4,4,0,0,0,4-4V9H6"/><line class="cls-5" x1="6" y1="5" x2="8" y2="5"/><line class="cls-5" x1="12" y1="5" x2="14" y2="5"/><line class="cls-5" x1="41" y1="5" x2="43" y2="5"/><path class="cls-5" d="M39,15H35a1,1,0,0,0-1,1v1l-7,3V32l7,3v1a1,1,0,0,0,1,1h4a1,1,0,0,0,1-1V16A1,1,0,0,0,39,15Z"/><line class="cls-5" x1="34" y1="17" x2="34" y2="30"/><path class="cls-5" d="M26,17H14a1,1,0,0,0-1,1v4l-3,1v6l3,1v4a1,1,0,0,0,1,1H26a1,1,0,0,0,1-1V18A1,1,0,0,0,26,17Z"/><path class="cls-5" d="M18,35v6a.979.979,0,0,0,1,1h2a1,1,0,0,0,1-1V35"/><line class="cls-5" x1="17" y1="22" x2="23" y2="22"/><polyline class="cls-5" points="17 26 23 26 23 30"/><line class="cls-5" x1="17" y1="26" x2="17" y2="30"/><line class="cls-5" x1="8" y1="26" x2="10" y2="26"/></g></svg>