<svg id="_30-bill" data-name="30-bill" xmlns="http://www.w3.org/2000/svg" viewBox="0 0 48 48"><defs><style>.cls-1{fill:#eaeaea;}.cls-2{fill:#475d8d;}.cls-3{fill:#35dc86;}</style></defs><title>30-bill</title><path class="cls-1" d="M15,16a2.006,2.006,0,0,1,2,2,2.015,2.015,0,0,1-2,2H13V16Z"/><path class="cls-1" d="M15,12a2.006,2.006,0,0,1,2,2,2.015,2.015,0,0,1-2,2H13V12Z"/><g id="_Group_" data-name="&lt;Group&gt;"><polygon class="cls-2" points="40 7 8 7 8 11 1 11 1 1 47 1 47 11 40 11 40 7"/><path class="cls-1" d="M40,11V43l-4,4-4-4-4,4-4-4-4,4-4-4-4,4L8,43V7H40ZM17,38V34H13v4Zm0-9V25H13v4Zm0-15a2.006,2.006,0,0,0-2-2H13v8h2a2.015,2.015,0,0,0,2-2,2.006,2.006,0,0,0-2-2,2.015,2.015,0,0,0,2-2Z"/><rect class="cls-3" x="13" y="34" width="4" height="4"/><rect class="cls-3" x="13" y="25" width="4" height="4"/><path d="M47,0H1A1,1,0,0,0,0,1V11a1,1,0,0,0,1,1H7V43a1,1,0,0,0,.293.707l4,4a1,1,0,0,0,1.414,0L16,44.414l3.293,3.293a1,1,0,0,0,1.414,0L24,44.414l3.293,3.293a1,1,0,0,0,1.414,0L32,44.414l3.293,3.293a1,1,0,0,0,1.414,0l4-4A1,1,0,0,0,41,43V12h6a1,1,0,0,0,1-1V1A1,1,0,0,0,47,0ZM39,42.586l-3,3-3.293-3.293a1,1,0,0,0-1.414,0L28,45.586l-3.293-3.293a1,1,0,0,0-1.414,0L20,45.586l-3.293-3.293a1,1,0,0,0-1.414,0L12,45.586l-3-3V8H39ZM46,10H41V8h2a1,1,0,0,0,1-1V5a1,1,0,0,0-2,0V6H6V5A1,1,0,0,0,4,5V7A1,1,0,0,0,5,8H7v2H2V2H46Z"/><path d="M15,11H13a1,1,0,0,0-1,1v8a1,1,0,0,0,1,1h2a3.015,3.015,0,0,0,3-3,2.977,2.977,0,0,0-.783-2A2.936,2.936,0,0,0,18,14,3,3,0,0,0,15,11Zm0,2a1,1,0,0,1,1,1,.977.977,0,0,1-.307.713A.959.959,0,0,1,15,15H14V13Zm.693,5.713A.959.959,0,0,1,15,19H14V17h1a1,1,0,0,1,1,1A.977.977,0,0,1,15.693,18.713Z"/><path d="M22,20V12a1,1,0,0,0-2,0v8a1,1,0,0,0,2,0Z"/><path d="M25,21h3a1,1,0,0,0,0-2H26V12a1,1,0,0,0-2,0v8A1,1,0,0,0,25,21Z"/><path d="M35,19H33V12a1,1,0,0,0-2,0v8a1,1,0,0,0,1,1h3a1,1,0,0,0,0-2Z"/><path d="M17,24H13a1,1,0,0,0-1,1v4a1,1,0,0,0,1,1h4a1,1,0,0,0,1-1V25A1,1,0,0,0,17,24Zm-1,4H14V26h2Z"/><path d="M17,33H13a1,1,0,0,0-1,1v4a1,1,0,0,0,1,1h4a1,1,0,0,0,1-1V34A1,1,0,0,0,17,33Zm-1,4H14V35h2Z"/><path d="M35,28H22a1,1,0,0,0,0,2H35a1,1,0,0,0,0-2Z"/><path d="M35,24H30a1,1,0,0,0,0,2h5a1,1,0,0,0,0-2Z"/><path d="M22,24a1,1,0,0,0,0,2h4a1,1,0,0,0,0-2Z"/><path d="M22,35h6a1,1,0,0,0,0-2H22a1,1,0,0,0,0,2Z"/><path d="M35,33H32a1,1,0,0,0,0,2h3a1,1,0,0,0,0-2Z"/><path d="M35,37H22a1,1,0,0,0,0,2H35a1,1,0,0,0,0-2Z"/></g></svg>