<svg xmlns="http://www.w3.org/2000/svg" viewBox="0 0 48 48"><defs><style>.cls-1{fill:#dad7e5;}.cls-2{fill:#7c7d7d;}.cls-3{fill:#edebf2;}.cls-4{fill:#919191;}.cls-5{fill:#747575;}.cls-6{fill:#6fabe6;}.cls-7{fill:#82bcf4;}</style></defs><title>Ecommerce</title><g id="Ecommerce"><path class="cls-1" d="M47,31H1V7A4,4,0,0,1,5,3H43a4,4,0,0,1,4,4Z"/><path class="cls-2" d="M43,37H5a4,4,0,0,1-4-4V31H47v2A4,4,0,0,1,43,37Z"/><polygon class="cls-2" points="31 45 17 45 19 37 29 37 31 45"/><path class="cls-3" d="M47,7V29H12a6,6,0,0,1-6-6V3H43A4,4,0,0,1,47,7Z"/><path class="cls-4" d="M47,31v2a4,4,0,0,1-4,4H10a4,4,0,0,1-4-4V31Z"/><polygon class="cls-5" points="29.5 39 18.5 39 19 37 29 37 29.5 39"/><path class="cls-6" d="M34,11c-1.79,8-1.41,6.34-2,9H17l-1.38-9Z"/><path class="cls-7" d="M34,11l-1.56,7H25.15a6,6,0,0,1-5.93-5.09L18.93,11Z"/><path d="M16.48,10,16,6.85A1,1,0,0,0,15,6H12a1,1,0,0,0,0,2h2.14c.32,2.07.34,2.23,1.82,11.81A3,3,0,0,0,18,25H29a1,1,0,0,0,0-2H18a1,1,0,0,1,0-2H32a1,1,0,0,0,1-.78c2.13-9.58,2.23-9.31,1.8-9.85S35.3,10,16.48,10ZM31.2,19H18c-.2,0,0,.77-1.21-7l16,0Z"/><path d="M20,26a1,1,0,0,0,0,2A1,1,0,0,0,20,26Z"/><path d="M26,26a1,1,0,0,0,0,2A1,1,0,0,0,26,26Z"/><path d="M43,2H5A5,5,0,0,0,0,7V33a5,5,0,0,0,5,5H17.72l-1.5,6H13a1,1,0,0,0,0,2H35a1,1,0,0,0,0-2H31.78l-1.5-6H43a5,5,0,0,0,5-5V7A5,5,0,0,0,43,2ZM2,7A3,3,0,0,1,5,4H43a3,3,0,0,1,3,3V30H2ZM29.72,44H18.28l1.5-6h8.44ZM46,33a3,3,0,0,1-3,3H5a3,3,0,0,1-3-3V32H46Z"/><path d="M39,20H36a1,1,0,0,0-.93.65c-.1.27-.07.11-.07,3.35a1,1,0,0,0,2,0v-.59l1.29,1.3a1,1,0,0,0,1.42-1.42L38.41,22H39A1,1,0,0,0,39,20Z"/></g></svg>