<svg xmlns="http://www.w3.org/2000/svg" viewBox="0 0 64 64"><title>25-Startup</title><g id="_25-Startup" data-name="25-Startup"><path d="M41,57v2H23V57H1v2a4,4,0,0,0,4,4H59a4,4,0,0,0,4-4V57Z" style="fill:#64e1dc"/><polygon points="3 13 3 57 23 57 23 59 41 59 41 57 61 57 61 13 3 13" style="fill:#f2f6fc"/><rect x="7" y="17" width="50" height="36" style="fill:#b5efff"/><rect x="7" y="17" width="2" height="36" style="fill:#19cffc"/><rect x="55" y="17" width="2" height="36" style="fill:#19cffc"/><path d="M59,61H5a4,4,0,0,1-4-4v2a4,4,0,0,0,4,4H59a4,4,0,0,0,4-4V57A4,4,0,0,1,59,61Z" style="fill:#00c8c8"/><path d="M53,45a2.938,2.938,0,0,0-3-3H46l-3-3H36l-1,4H29l-1-4H21l-3,3H14a2.938,2.938,0,0,0-3,3s0,3-4,3v5H57V48C53,48,53,45,53,45Z" style="fill:#ffda45"/><path d="M53,45a2.938,2.938,0,0,0-3-3H46l-3-3H36l-1,4H29l-1-4H21l-3,3H14a2.938,2.938,0,0,0-3,3s0,3-4,3v4c4,0,4-3,4-3a2.938,2.938,0,0,1,3-3h4l3-3h7l1,4h6l1-4h7l3,3h4a2.938,2.938,0,0,1,3,3s0,3,4,3V48C53,48,53,45,53,45Z" style="fill:#ffa426"/><polygon points="36 39 35 43 29 43 28 39 36 39" style="fill:#afb4c8"/><path d="M26,39H21l-3,3V35l4.81-3.85A27.143,27.143,0,0,0,26,39Z" style="fill:#ff8257"/><path d="M46,35v7l-3-3H38a27.143,27.143,0,0,0,3.19-7.85Z" style="fill:#ff8257"/><path d="M24.018,39H26a27.143,27.143,0,0,1-3.19-7.85L18,35v4l4.81-3.85A23.31,23.31,0,0,0,24.018,39Z" style="fill:#f05e3a"/><path d="M41.19,31.15A27.143,27.143,0,0,1,38,39h1.982a23.31,23.31,0,0,0,1.208-3.85L46,39V35Z" style="fill:#f05e3a"/><path d="M40.95,13.02a12.519,12.519,0,0,1,.8,2.2C40.9,15.91,37.84,18,32,18s-8.9-2.09-9.75-2.78a12.519,12.519,0,0,1,.8-2.2C25.61,7.39,32,1,32,1S38.39,7.39,40.95,13.02Z" style="fill:#ff8257"/><path d="M34,27a2,2,0,1,0-2,2A2.006,2.006,0,0,0,34,27Zm-2-5a5,5,0,1,1-5,5A5,5,0,0,1,32,22Z" style="fill:#ff8257"/><circle cx="32" cy="27" r="2" style="fill:#b5efff"/><path d="M22.81,31.15C22,27.5,22,23.45,22,17a7.2,7.2,0,0,1,.25-1.78C23.1,15.91,26.16,18,32,18s8.9-2.09,9.75-2.78A7.2,7.2,0,0,1,42,17c0,6.45,0,10.5-.81,14.15A27.143,27.143,0,0,1,38,39H26A27.143,27.143,0,0,1,22.81,31.15ZM37,27a5,5,0,1,0-5,5A5,5,0,0,0,37,27Z" style="fill:#cdd2e1"/><path d="M40.95,13.02C38.39,7.39,32,1,32,1s-.6.6-1.5,1.588c2.049,2.248,5.672,6.521,7.45,10.432a12.519,12.519,0,0,1,.8,2.2c-.774.628-3.386,2.41-8.25,2.727.48.031.975.053,1.5.053,5.84,0,8.9-2.09,9.75-2.78A12.519,12.519,0,0,0,40.95,13.02Z" style="fill:#f05e3a"/><path d="M41.75,15.22a10.9,10.9,0,0,1-2.767,1.553c0,.074.017.154.017.227,0,6.45,0,10.5-.81,14.15A27.143,27.143,0,0,1,35,39h3a27.143,27.143,0,0,0,3.19-7.85C42,27.5,42,23.45,42,17A7.2,7.2,0,0,0,41.75,15.22Z" style="fill:#e9edf5"/><path d="M63,56H62V13a1,1,0,0,0-1-1H41.564C38.813,6.44,32.964.549,32.707.293a1,1,0,0,0-1.414,0C31.036.549,25.182,6.446,22.436,12H3a1,1,0,0,0-1,1V56H1a1,1,0,0,0-1,1v2a5.006,5.006,0,0,0,5,5H59a5.006,5.006,0,0,0,5-5V57A1,1,0,0,0,63,56ZM56,18V46.912c-1.844-.345-1.992-1.634-2-1.912a3.887,3.887,0,0,0-4-4H47V35a1,1,0,0,0-.375-.78l-4.332-3.466C42.96,27.365,43,23.68,43,18ZM21,18c0,5.68.04,9.365.707,12.754L17.375,34.22A1,1,0,0,0,17,35v6H14a3.887,3.887,0,0,0-4,4c0,.072-.027,1.538-2,1.913V18ZM41.77,32.9,45,35.48v4.106l-1.293-1.293A1,1,0,0,0,43,38H39.68A27.88,27.88,0,0,0,41.77,32.9Zm-.776-15.981c0,.027.006.059.006.085,0,6.479,0,10.391-.787,13.935A25.332,25.332,0,0,1,37.416,38H26.584a25.361,25.361,0,0,1-2.8-7.066C23,27.391,23,23.479,23,17c0-.026.006-.057.006-.084A18.21,18.21,0,0,0,32,19,18.206,18.206,0,0,0,40.994,16.915ZM34.719,40l-.5,2H29.781l-.5-2ZM22.23,32.9A27.851,27.851,0,0,0,24.32,38H21a1,1,0,0,0-.707.293L19,39.586V35.48ZM8,48.931c3.128-.4,4-2.673,4-3.931a1.884,1.884,0,0,1,2-2h4a1,1,0,0,0,.707-.293L21.414,40h5.805l.811,3.242A1,1,0,0,0,29,44h6a1,1,0,0,0,.97-.758L36.781,40h5.805l2.707,2.707A1,1,0,0,0,46,43h4a1.883,1.883,0,0,1,2,2c0,1.258.872,3.528,4,3.931V52H8ZM32,2.442c1.712,1.818,6.081,6.684,8.044,11a12.2,12.2,0,0,1,.54,1.39A15.384,15.384,0,0,1,32,17a15.378,15.378,0,0,1-8.584-2.168,12.221,12.221,0,0,1,.544-1.4C25.92,9.124,30.288,4.259,32,2.442ZM4,14H21.582c-.113.328-.22.654-.3.97A9.206,9.206,0,0,0,21.075,16H7a1,1,0,0,0-1,1V53a1,1,0,0,0,1,1H57a1,1,0,0,0,1-1V17a1,1,0,0,0-1-1H42.925a9.315,9.315,0,0,0-.206-1.026c-.081-.319-.188-.646-.3-.974H60V56H41a1,1,0,0,0-1,1v1H24V57a1,1,0,0,0-1-1H4ZM62,59a3,3,0,0,1-3,3H5a3,3,0,0,1-3-3V58H22v1a1,1,0,0,0,1,1H41a1,1,0,0,0,1-1V58H62Z"/><path d="M26,27a6,6,0,1,0,6-6A6.006,6.006,0,0,0,26,27Zm10,0a4,4,0,1,1-4-4A4,4,0,0,1,36,27Z"/><path d="M29,27a3,3,0,1,0,3-3A3,3,0,0,0,29,27Zm4,0a1,1,0,1,1-1-1A1,1,0,0,1,33,27Z"/><rect x="24" y="42" width="2" height="8"/><rect x="38" y="42" width="2" height="8"/><rect x="20" y="48" width="2" height="2"/><rect x="42" y="48" width="2" height="2"/></g></svg>