<svg xmlns="http://www.w3.org/2000/svg" viewBox="0 0 64 64"><g id="_09-Approval" data-name="09-Approval"><path d="M63,45v4a4,4,0,0,1-4,4H5a4,4,0,0,1-4-4V45H63Z" style="fill:#e9edf5"/><path d="M4,49V45H1v4a4,4,0,0,0,4,4H8A4,4,0,0,1,4,49Z" style="fill:#cdd2e1"/><path d="M63,15V45H52V11h7A4,4,0,0,1,63,15Z" style="fill:#19cffc"/><path d="M52,11V45H12V9h8V1H50a2.006,2.006,0,0,1,2,2Z" style="fill:#fff2de"/><polygon points="46 59 46 63 18 63 18 59 21 59 43 59 46 59" style="fill:#9196aa"/><polygon points="42 53 43 59 21 59 22 53 42 53" style="fill:#bec3d2"/><path d="M20,1V9H12Z" style="fill:#e3a76f"/><path d="M12,11V45H1V15a4,4,0,0,1,4-4Z" style="fill:#19cffc"/><rect x="52" y="11" width="3" height="34" style="fill:#4ab8f7"/><path d="M8,11H5a4,4,0,0,0-4,4V45H4V15A4,4,0,0,1,8,11Z" style="fill:#4ab8f7"/><rect x="17" y="36" width="2" height="2" style="fill:#e3a76f"/><rect x="21" y="36" width="11" height="2" style="fill:#e3a76f"/><rect x="17" y="40" width="15" height="2" style="fill:#e3a76f"/><path d="M37,11v2c-7,0-7-3-7-3a2.938,2.938,0,0,1-3,3V11a5,5,0,1,1,10,0Z" style="fill:#bc6829"/><path d="M37,13v2a5.029,5.029,0,0,1-3,4.59,5,5,0,0,1-5.54-1.05A5.022,5.022,0,0,1,27,15V13a2.938,2.938,0,0,0,3-3S30,13,37,13Z" style="fill:#ffcdbe"/><path d="M34,19.59V21a2.015,2.015,0,0,1-2,2,2.006,2.006,0,0,1-2-2V19.59a5.083,5.083,0,0,0,4,0Z" style="fill:#faa68e"/><path d="M41,24v2.6a12.062,12.062,0,0,0-5.31,6.38H23V24l7-3a2.006,2.006,0,0,0,2,2,2.015,2.015,0,0,0,2-2Z" style="fill:#ff7045"/><path d="M34,21a2.015,2.015,0,0,1-2,2,2.006,2.006,0,0,1-2-2l-7,3v3l7-3a2.006,2.006,0,0,0,2,2,2.015,2.015,0,0,0,2-2l6.626,2.84c.125-.079.246-.166.374-.24V24Z" style="fill:#f05e3a"/><polygon points="55 33 44 44 39 39 42 36 44 38 52 30 55 33" style="fill:#f2f6fc"/><path d="M47,25A12,12,0,1,1,35,37,12,12,0,0,1,47,25ZM44,44,55,33l-3-3-8,8-2-2-3,3Z" style="fill:#a5e887"/><path d="M38,37A11.99,11.99,0,0,1,48.5,25.1a12,12,0,1,0,0,23.792A11.99,11.99,0,0,1,38,37Z" style="fill:#86c983"/><path d="M59,10H53V3a3,3,0,0,0-3-3H20a1,1,0,0,0-.707.293l-8,8A1,1,0,0,0,11,9v1H5a5.006,5.006,0,0,0-5,5V49a5.006,5.006,0,0,0,5,5H20.82l-.667,4H18a1,1,0,0,0-1,1v4a1,1,0,0,0,1,1H46a1,1,0,0,0,1-1V59a1,1,0,0,0-1-1H43.847l-.667-4H59a5.006,5.006,0,0,0,5-5V15A5.006,5.006,0,0,0,59,10Zm0,2a3,3,0,0,1,3,3V44H57.937A12.957,12.957,0,0,0,53,25.479V12ZM29.346,22.368A2.989,2.989,0,0,0,32,24a2.968,2.968,0,0,0,2.655-1.632L40,24.659v1.4a13.075,13.075,0,0,0-4.99,5.916H24v-7.32ZM36,11.978C31.279,11.759,31,10,31,10h0a1,1,0,0,0-2,0,1.771,1.771,0,0,1-1,1.766V11a4,4,0,0,1,8,0Zm-8,1.9a3.962,3.962,0,0,0,2.313-1.523c.982.788,2.7,1.5,5.687,1.628V15a4,4,0,0,1-8,0Zm3,7.036a5.6,5.6,0,0,0,2,0V21a.974.974,0,0,1-.306.712A.957.957,0,0,1,32,22a1,1,0,0,1-1-1ZM47,26A11,11,0,1,1,36,37,11.013,11.013,0,0,1,47,26ZM51,3V24.636A12.934,12.934,0,0,0,42,25V24a1,1,0,0,0-.606-.919L35,20.341v-.153A6,6,0,0,0,38,15V11a6,6,0,0,0-12,0v4a6,6,0,0,0,3,5.188v.153l-6.394,2.74A1,1,0,0,0,22,24v8.979a1,1,0,0,0,1,1H34.369A12.8,12.8,0,0,0,36.063,44H13V10h7a1,1,0,0,0,1-1V2H50A1,1,0,0,1,51,3ZM14.414,8,19,3.414V8ZM5,12h6V44H2V15A3,3,0,0,1,5,12ZM45,62H19V60H45Zm-3.181-4H22.181l.666-4H41.153ZM59,52H5a3,3,0,0,1-3-3V46H37.641a12.949,12.949,0,0,0,18.718,0H62v3A3,3,0,0,1,59,52Z"/><path d="M44,45a1,1,0,0,0,.707-.293l11-11a1,1,0,0,0,0-1.414l-3-3a1,1,0,0,0-1.414,0L44,36.586l-1.293-1.293a1,1,0,0,0-1.414,0l-3,3a1,1,0,0,0,0,1.414l5,5A1,1,0,0,0,44,45Zm-2-7.586,1.293,1.293a1,1,0,0,0,1.414,0L52,31.414,53.586,33,44,42.586,40.414,39Z"/><rect x="17" y="36" width="2" height="2"/><rect x="21" y="36" width="11" height="2"/><rect x="17" y="40" width="15" height="2"/></g></svg>