<svg xmlns="http://www.w3.org/2000/svg" viewBox="0 0 48 48"><defs><style>.cls-1{fill:#fed049;}.cls-2{fill:#a4b0c0;}.cls-3{fill:#eaeaea;}.cls-4{fill:#4994ee;}</style></defs><title>19-credit card</title><g id="_19-credit_card" data-name="19-credit card"><g id="_Group_" data-name="&lt;Group&gt;"><path class="cls-1" d="M45,24v6a2.006,2.006,0,0,1-2,2H23a2.006,2.006,0,0,1-2-2V24Z"/><rect class="cls-2" x="21" y="20" width="24" height="4"/><path class="cls-1" d="M45,18v2H21V18a2.006,2.006,0,0,1,2-2H43A2.006,2.006,0,0,1,45,18Z"/><path class="cls-3" d="M27,39v6a2.006,2.006,0,0,1-2,2H5a2.006,2.006,0,0,1-2-2V39Z"/><path class="cls-4" d="M27,32v7H3V9H27v7H23a2.006,2.006,0,0,0-2,2V30a2.006,2.006,0,0,0,2,2Z"/><path class="cls-3" d="M27,3V9H3V3A2.006,2.006,0,0,1,5,1H25A2.006,2.006,0,0,1,27,3Z"/><path d="M13,44h4a1,1,0,0,0,0-2H13a1,1,0,0,0,0,2Z"/><path d="M13,4H12a1,1,0,0,0,0,2h1a1,1,0,0,0,0-2Z"/><path d="M18,4H16a1,1,0,0,0,0,2h2a1,1,0,0,0,0-2Z"/><path d="M43,15H28V3a3,3,0,0,0-3-3H5A3,3,0,0,0,2,3V45a3,3,0,0,0,3,3H25a3,3,0,0,0,3-3V33H43a3,3,0,0,0,3-3V18A3,3,0,0,0,43,15ZM22,21H44v2H22Zm22-3v1H22V18a1,1,0,0,1,1-1H43A1,1,0,0,1,44,18ZM4,3A1,1,0,0,1,5,2H25a1,1,0,0,1,1,1V8H4ZM26,45a1,1,0,0,1-1,1H5a1,1,0,0,1-1-1V40H26Zm0-7H4V10H26v5H23a3,3,0,0,0-3,3V30a3,3,0,0,0,3,3h3Zm17-7H23a1,1,0,0,1-1-1V25H44v5A1,1,0,0,1,43,31Z"/><path d="M28,27H25a1,1,0,0,0,0,2h3a1,1,0,0,0,0-2Z"/></g></g></svg>