<svg xmlns="http://www.w3.org/2000/svg" viewBox="0 0 48 48"><defs><style>.cls-1{fill:#9fdbf3;}.cls-2{fill:#b2e5fb;}.cls-3{fill:#dad7e5;}.cls-4,.cls-8{fill:#edebf2;}.cls-5{fill:#a87e6b;}.cls-6{fill:#be927c;}.cls-7{fill:#a07765;}.cls-8{opacity:0.2;}</style></defs><title>Smartphone with Box</title><g id="Smartphone_with_Box" data-name="Smartphone with Box"><rect class="cls-1" x="10" y="9" width="28" height="30"/><path class="cls-2" d="M38,9c0,29.13-.1,28,0,28A26,26,0,0,1,12,11V9Z"/><path class="cls-3" d="M38,5V9H10V5a4,4,0,0,1,2.36-3.64C13.45.86,12.36,1,34,1A4,4,0,0,1,38,5Z"/><path class="cls-4" d="M38,5V7H16a4,4,0,0,1-3.64-5.64A3.93,3.93,0,0,1,14,1H34A4,4,0,0,1,38,5Z"/><path class="cls-3" d="M38,39c0,4.09.12,4.6-.36,5.64A4,4,0,0,1,34,47H14a4,4,0,0,1-4-4V39Z"/><path class="cls-4" d="M38,39c0,4.09.12,4.6-.36,5.64-1.09.5,0,.36-21.64.36a4,4,0,0,1-4-4V39Z"/><path class="cls-5" d="M32,17c-5.86,2.94-1.5.75-8,4l-8-4,8-4Z"/><path class="cls-6" d="M32,17c-6.61,3.32-1,.49-7,3.5l-5.21-2.61a1,1,0,0,1,0-1.78L25,13.5Z"/><polygon class="cls-7" points="24 21 24 29 16 25 16 17 24 21"/><polygon class="cls-5" points="32 17 32 25 24 29 24 21 32 17"/><path class="cls-6" d="M32,17v6.5l-4.11,2.05A2,2,0,0,1,25,23.76V20.5Z"/><polygon class="cls-8" points="38 9 38 39 27 39 38 9"/><polygon class="cls-8" points="31 9 21 39 16 39 26 9 31 9"/><path d="M34,0H14A5,5,0,0,0,9,5V43a5,5,0,0,0,5,5H34a5,5,0,0,0,5-5V5A5,5,0,0,0,34,0Zm3,43a3,3,0,0,1-3,3H14a3,3,0,0,1-3-3V40H37Zm0-5H11V10H37ZM37,8H11V5a3,3,0,0,1,3-3H34a3,3,0,0,1,3,3Z"/><path d="M20,4a1,1,0,0,0,0,2A1,1,0,0,0,20,4Z"/><path d="M30,4H24a1,1,0,0,0,0,2h6A1,1,0,0,0,30,4Z"/><path d="M32.93,16.65a1.08,1.08,0,0,0-.48-.54c-8.59-4.29-8.3-4.32-8.9-4C15.29,16.24,15,16.12,15,17c0,8.88-.05,8.1.16,8.52s-.68-.17,8.39,4.37a1,1,0,0,0,.9,0c8.68-4.34,8.42-4,8.52-4.75C33,24.94,33.05,17,32.93,16.65ZM24,14.12,29.76,17,28,17.88,22.24,15ZM23,27.38l-6-3V18.62l6,3Zm1-7.5L18.24,17,20,16.12,25.76,19Zm7,4.5-6,3V21.62l2-1V21a1,1,0,0,0,2,0V19.62l2-1Z"/><path d="M32,32H16a1,1,0,0,0,0,2H32A1,1,0,0,0,32,32Z"/><path d="M26,43a2,2,0,1,1-3.14-1.64A2,2,0,0,1,26,43Z"/></g></svg>