<?xml version="1.0" encoding="utf-8"?>
<!-- Generator: Adobe Illustrator 22.0.1, SVG Export Plug-In . SVG Version: 6.00 Build 0)  -->
<svg version="1.1" id="Layer_1" xmlns="http://www.w3.org/2000/svg" xmlns:xlink="http://www.w3.org/1999/xlink" x="0px" y="0px"
	 viewBox="0 0 64 64" style="enable-background:new 0 0 64 64;" xml:space="preserve">
<style type="text/css">
	.st0{fill:#9FDBF3;}
	.st1{fill:#B2E5FB;}
	.st2{fill:#DAD7E5;}
	.st3{fill:#EDEBF2;}
	.st4{fill:#C6C3D8;}
	.st5{opacity:0.2;fill:#EDEBF2;enable-background:new    ;}
	.st6{fill:#19CFFC;stroke:#000000;stroke-width:1.0006;stroke-linecap:round;stroke-linejoin:round;stroke-miterlimit:10;}
	.st7{fill:#FFA426;stroke:#000000;stroke-width:1.0006;stroke-linecap:round;stroke-linejoin:round;stroke-miterlimit:10;}
	.st8{fill:#FFEE6E;stroke:#000000;stroke-width:1.0006;stroke-linecap:round;stroke-linejoin:round;stroke-miterlimit:10;}
	.st9{fill:#9196AA;stroke:#000000;stroke-width:1.0006;stroke-linecap:round;stroke-linejoin:round;stroke-miterlimit:10;}
	.st10{fill:#BC6829;stroke:#000000;stroke-width:1.4173;stroke-linecap:round;stroke-linejoin:round;stroke-miterlimit:10;}
	.st11{fill:#FFCDBE;stroke:#000000;stroke-width:1.4173;stroke-linecap:round;stroke-linejoin:round;stroke-miterlimit:10;}
	.st12{fill:#FF936B;stroke:#000000;stroke-width:1.4173;stroke-linecap:round;stroke-linejoin:round;stroke-miterlimit:10;}
	.st13{fill:#FF7045;stroke:#000000;stroke-width:1.4173;stroke-linecap:round;stroke-linejoin:round;stroke-miterlimit:10;}
	.st14{fill:#A5E887;}
	.st15{fill:#86C983;}
	.st16{fill:#F5FFE0;}
	.st17{fill:#F2F6FC;}
</style>
<g id="Computer_with_Box">
	<path class="st0" d="M59.7,38.8H4V4.3c0-1.5,1.2-2.7,2.7-2.7c54.7,0,51.2-0.4,52.3,0.8S59.7,1.5,59.7,38.8z"/>
	<path class="st1" d="M59.7,4.3v30.5H39.8C21.5,34.8,6.6,19.9,6.6,1.6h50.4C58.5,1.6,59.7,2.8,59.7,4.3z"/>
	<path class="st2" d="M59.7,38.8v5.3c0,1.5-1.2,2.7-2.7,2.7H6.6c-1.5,0-2.7-1.2-2.7-2.7v-5.3H59.7z"/>
	<path class="st3" d="M59.7,38.8v5.3H12c-2.9,0-5.3-2.4-5.3-5.3H59.7z"/>
	<path class="st4" d="M41.2,62.7H22.6l2.7-15.9h13.3L41.2,62.7z"/>
	<path class="st2" d="M38.1,62.7H22.6l2.2-13.3h6.6c2.6,0,4.8,1.9,5.2,4.4L38.1,62.7z"/>
	<polygon class="st5" points="50.4,1.6 34.5,38.8 25.2,38.8 41.2,1.6 	"/>
	<polygon class="st5" points="29.2,1.6 14.6,38.8 9.3,38.8 23.9,1.6 	"/>
	<path class="st5" d="M59.7,38.8H46.5c2-5.8-0.3,0.7,12.5-36.3C60.1,3.5,59.7,1.5,59.7,38.8z"/>
	<path d="M57.1,0.3H6.6c-2.2,0-4,1.8-4,4v39.8c0,2.2,1.8,4,4,4h17l-2.2,13.3h-4.2c-0.7,0-1.3,0.6-1.3,1.3c0,0.7,0.6,1.3,1.3,1.3
		h29.2c0.7,0,1.3-0.6,1.3-1.3c0-0.7-0.6-1.3-1.3-1.3h-4.2l-2.2-13.3h17c2.2,0,4-1.8,4-4V4.3C61.1,2.1,59.3,0.3,57.1,0.3z M5.3,4.3
		c0-0.7,0.6-1.3,1.3-1.3h50.4c0.7,0,1.3,0.6,1.3,1.3v33.2H5.3V4.3z M39.6,61.3H24.1l2.2-13.3h11L39.6,61.3z M58.4,44.1
		c0,0.7-0.6,1.3-1.3,1.3H6.6c-0.7,0-1.3-0.6-1.3-1.3v-4h53.1V44.1z"/>
	<path d="M9.3,44.1c0.7,0,1.3-0.6,1.3-1.3c0-0.7-0.6-1.3-1.3-1.3S8,42,8,42.8C8,43.5,8.6,44.1,9.3,44.1z"/>
	<path d="M14.6,44.1c0.7,0,1.3-0.6,1.3-1.3c0-0.7-0.6-1.3-1.3-1.3s-1.3,0.6-1.3,1.3C13.3,43.5,13.9,44.1,14.6,44.1z"/>
	<path d="M19.9,44.1c0.7,0,1.3-0.6,1.3-1.3c0-0.7-0.6-1.3-1.3-1.3s-1.3,0.6-1.3,1.3C18.6,43.5,19.2,44.1,19.9,44.1z"/>
</g>
<g id="_14-Interview">
	<polygon class="st6" points="6.2,4.3 6.2,15 8.5,15 11.5,18.1 11.5,15 26.1,15 29.2,15 29.2,11.2 29.2,4.3 	"/>
	<path class="st7" d="M40.3,49.6c0,0,3.9,0,3.9,2.9v11.7h-3.9V49.6z"/>
	<path class="st7" d="M57.8,64.2L57.8,64.2l-3.9,0V52.6c0-2.9,3.9-2.9,3.9-2.9V64.2z"/>
	<path class="st8" d="M51,46.7l6.8,2.9c0,0-3.9,0-3.9,2.9v11.7h-9.7V52.6c0-2.9-3.9-2.9-3.9-2.9l6.8-2.9v-1.4c1.2,0.5,2.7,0.5,3.9,0
		V46.7z"/>
	<path class="st9" d="M51,45.4c-1.8,0.8-4,0.4-5.4-1c-0.9-0.9-1.4-2.2-1.4-3.4V37c0-2.7,2.2-4.9,4.9-4.9c2.7,0,4.9,2.2,4.9,4.9v3.9
		C53.9,42.8,52.7,44.6,51,45.4z"/>
	<path class="st10" d="M16.9,21.1c0,1.2-1,2.3-2.2,2.3c0,0-0.1,0-0.1,0v-1.5c0-2.1,1.7-3.8,3.8-3.8s3.8,1.7,3.8,3.8v1.5
		C16.9,23.4,16.9,21.1,16.9,21.1z"/>
	<path class="st11" d="M18.4,28.8c0.5,0,1-0.1,1.5-0.3v1.1c0,0.8-0.7,1.5-1.5,1.5c-0.8,0-1.5-0.7-1.5-1.5v-1.1L18.4,28.8z"/>
	<path class="st11" d="M22.3,25c0,1.5-0.9,2.9-2.3,3.5c-0.5,0.2-1,0.3-1.5,0.3l-1.5-0.3l-1.2-0.8C15,27,14.6,26,14.6,25v-1.5
		c1.2,0,2.3-1,2.3-2.2c0,0,0-0.1,0-0.1c0,0,0,2.3,5.4,2.3V25z"/>
	<path class="st12" d="M18.4,31.1v7.7h-6.9v-6.9l5.4-2.3C16.9,30.4,17.6,31.1,18.4,31.1z"/>
	<path class="st13" d="M25.3,38.8L25.3,38.8l-6.9,0v-7.7c0.8,0,1.5-0.7,1.5-1.5l5.4,2.3V38.8z"/>
	<polygon class="st14" points="58.2,19.9 58.2,29.1 55.6,29.1 53,31.7 53,29.1 34.7,29.1 34.7,23.2 34.7,19.9 37.3,19.9 	"/>
	<polygon class="st15" points="36.7,19.9 34.7,19.9 34.7,23.2 34.7,29.1 36.7,29.1 36.7,23.2 	"/>
	<rect x="39.3" y="22.5" class="st16" width="17" height="1.3"/>
	<rect x="36.7" y="25.2" class="st16" width="19.6" height="1.3"/>
	<circle class="st17" cx="11.5" cy="9.7" r="1.5"/>
	<circle class="st17" cx="17.7" cy="9.7" r="1.5"/>
	<circle class="st17" cx="23.8" cy="9.7" r="1.5"/>
	<path d="M58.2,19.3H34.7c-0.4,0-0.7,0.3-0.7,0.7v9.1c0,0.4,0.3,0.7,0.7,0.7h17.6v2c0,0.4,0.3,0.7,0.7,0.7c0.2,0,0.3-0.1,0.5-0.2
		l2.4-2.4h2.3c0.4,0,0.7-0.3,0.7-0.7v-9.1C58.9,19.6,58.6,19.3,58.2,19.3z M57.6,28.4h-2c-0.2,0-0.3,0.1-0.5,0.2l-1.5,1.5v-1
		c0-0.4-0.3-0.7-0.7-0.7H35.4v-7.8h22.2V28.4z"/>
	<rect x="36.7" y="22.5" width="1.3" height="1.3"/>
	<rect x="39.3" y="22.5" width="17" height="1.3"/>
	<rect x="36.7" y="25.2" width="19.6" height="1.3"/>
	<path d="M9.2,9.7c0,1.3,1,2.3,2.3,2.3c1.3,0,2.3-1,2.3-2.3s-1-2.3-2.3-2.3C10.3,7.4,9.2,8.4,9.2,9.7z M12.3,9.7
		c0,0.4-0.3,0.8-0.8,0.8c-0.4,0-0.8-0.3-0.8-0.8s0.3-0.8,0.8-0.8C11.9,8.9,12.3,9.2,12.3,9.7z"/>
	<path d="M15.4,9.7c0,1.3,1,2.3,2.3,2.3s2.3-1,2.3-2.3s-1-2.3-2.3-2.3S15.4,8.4,15.4,9.7z M18.4,9.7c0,0.4-0.3,0.8-0.8,0.8
		c-0.4,0-0.8-0.3-0.8-0.8s0.3-0.8,0.8-0.8C18.1,8.9,18.4,9.2,18.4,9.7z"/>
	<path d="M21.5,9.7c0,1.3,1,2.3,2.3,2.3s2.3-1,2.3-2.3s-1-2.3-2.3-2.3S21.5,8.4,21.5,9.7z M24.6,9.7c0,0.4-0.3,0.8-0.8,0.8
		c-0.4,0-0.8-0.3-0.8-0.8s0.3-0.8,0.8-0.8C24.2,8.9,24.6,9.2,24.6,9.7z"/>
</g>
</svg>
