
<svg id="Layer_1" data-name="Layer 1" xmlns="http://www.w3.org/2000/svg" viewBox="0 0 64 64"><defs><style>.cls-1{fill:#d9ebf4;}.cls-2{fill:#c6e2f4;}.cls-17,.cls-18,.cls-23,.cls-24,.cls-3{fill:none;stroke:#041256;stroke-linecap:round;stroke-linejoin:round;}.cls-3{stroke-width:2px;}.cls-4{fill:#308baa;}.cls-5{fill:#42adc6;}.cls-6{fill:#041256;}.cls-7{fill:#c659a7;}.cls-8{fill:#e073bc;}.cls-9{fill:#6d1f66;}.cls-10{fill:#e2b08f;}.cls-11{fill:#eac3a7;}.cls-12{fill:#255a82;}.cls-13{fill:#248284;}.cls-14{fill:#38b2b2;}.cls-15{fill:#0e2475;}.cls-16{fill:#872385;}.cls-17{stroke-width:1.72px;}.cls-18{stroke-width:1.72px;}.cls-19{fill:#67d3e5;}.cls-20{fill:#3bc1c4;}.cls-21{fill:#3da5c1;}.cls-22{fill:#4ad19a;}.cls-24{stroke-dasharray:0.81 1.63;}</style></defs><title>virtual, reality, vr, world, teleport, transfer, woman</title><path class="cls-1" d="M55.79,21.23h2.43a.76.76,0,0,0,0-1.52H57a.46.46,0,0,1-.46-.46.46.46,0,0,0-.46-.46H53.66a.76.76,0,1,0,0,1.52h1.21a.46.46,0,0,1,.46.46A.46.46,0,0,0,55.79,21.23Z"/><path class="cls-1" d="M53.82,22.42H52.41a.26.26,0,0,0-.26.26.26.26,0,0,1-.26.26h-.7a.44.44,0,1,0,0,.88h1.41a.26.26,0,0,0,.26-.26.26.26,0,0,1,.26-.26h.7a.44.44,0,0,0,0-.88Z"/><path class="cls-1" d="M58.53,14.73H57.12a.26.26,0,0,0-.26.26.26.26,0,0,1-.26.26h-.7a.44.44,0,0,0,0,.88H57.3a.26.26,0,0,0,.26-.26.26.26,0,0,1,.26-.26h.7a.44.44,0,0,0,0-.88Z"/><circle class="cls-1" cx="55.94" cy="29.33" r="0.63"/><circle class="cls-1" cx="55.94" cy="24.28" r="0.61"/><circle class="cls-1" cx="58.97" cy="25.53" r="0.98"/><circle class="cls-1" cx="59.57" cy="17.92" r="0.32"/><circle class="cls-1" cx="49.57" cy="25.53" r="0.39"/><circle class="cls-1" cx="52.5" cy="26.74" r="1.02"/><circle class="cls-1" cx="48.53" cy="22.78" r="0.35"/><path class="cls-1" d="M8,19.46H8a.5.5,0,0,1,.5-.5h2.67a.83.83,0,0,1,.83.83h0a.83.83,0,0,1-.83.83H9.89a.5.5,0,0,0-.5.5h0a.5.5,0,0,1-.5.5H6.21a.83.83,0,0,1-.83-.83h0A.83.83,0,0,1,6.21,20H7.55A.5.5,0,0,0,8,19.46Z"/><path class="cls-1" d="M12.88,23.23h0a.29.29,0,0,0-.29-.29H11a.48.48,0,0,0-.48.48h0a.48.48,0,0,0,.48.48h.77a.29.29,0,0,1,.29.29h0a.29.29,0,0,0,.29.29h1.55a.48.48,0,0,0,.48-.48h0a.48.48,0,0,0-.48-.48h-.77A.29.29,0,0,1,12.88,23.23Z"/><circle class="cls-1" cx="9.59" cy="31.14" r="0.7"/><circle class="cls-1" cx="8.71" cy="24.98" r="0.67"/><circle class="cls-1" cx="5.38" cy="26.35" r="1.08"/><circle class="cls-1" cx="4.73" cy="17.99" r="0.35"/><circle class="cls-1" cx="15.71" cy="26.35" r="0.43"/><circle class="cls-1" cx="12.5" cy="27.69" r="1.12"/><circle class="cls-1" cx="16.85" cy="23.33" r="0.39"/><path class="cls-1" d="M27.63,30.64h0a.5.5,0,0,1,.5-.5H30.8a.83.83,0,0,1,.83.83h0a.83.83,0,0,1-.83.83H29.46a.5.5,0,0,0-.5.5h0a.5.5,0,0,1-.5.5H25.79A.83.83,0,0,1,25,32h0a.83.83,0,0,1,.83-.83h1.33A.5.5,0,0,0,27.63,30.64Z"/><path class="cls-1" d="M32.46,34.4h0a.29.29,0,0,0-.29-.29H30.62a.48.48,0,0,0-.48.48h0a.48.48,0,0,0,.48.48h.77a.29.29,0,0,1,.29.29h0a.29.29,0,0,0,.29.29h1.55a.48.48,0,0,0,.48-.48h0a.48.48,0,0,0-.48-.48h-.77A.29.29,0,0,1,32.46,34.4Z"/><circle class="cls-1" cx="29.16" cy="42.31" r="0.7"/><circle class="cls-1" cx="28.29" cy="36.16" r="0.67"/><circle class="cls-1" cx="24.96" cy="37.53" r="1.08"/><circle class="cls-1" cx="24.3" cy="29.16" r="0.35"/><circle class="cls-1" cx="35.29" cy="37.53" r="0.43"/><circle class="cls-1" cx="32.07" cy="38.86" r="1.12"/><circle class="cls-1" cx="36.43" cy="34.5" r="0.39"/><path class="cls-2" d="M3,61V33.72a.89.89,0,0,1,.89-.89h.93a.89.89,0,0,1,.89.89V36a.89.89,0,0,0,.89.89h3a.89.89,0,0,1,.89.89V48.15a.89.89,0,0,0,.89.89h1.85a.89.89,0,0,1,.89.89v6.54a.89.89,0,0,0,.89.89h.9a.89.89,0,0,0,.89-.89V55.33a.89.89,0,0,1,.89-.89h.81a.89.89,0,0,0,.89-.89V52a.89.89,0,0,1,.89-.89H25.1a.89.89,0,0,0,.89-.89v-.91a.89.89,0,0,1,.89-.89h15.4a.89.89,0,0,1,.63.26l4.14,4.14a.89.89,0,0,0,.63.26h1.24a.89.89,0,0,1,.89.89v3a.89.89,0,0,0,.89.89h.51a.89.89,0,0,0,.89-.89v-.52a.89.89,0,0,1,.89-.89h.65a.89.89,0,0,0,.89-.89.89.89,0,0,1,.89-.89h4.63a.89.89,0,0,1,.89.89V61Z"/><line class="cls-3" x1="3" y1="61" x2="61" y2="61"/><ellipse class="cls-4" cx="19.56" cy="32" rx="5.98" ry="25.54"/><ellipse class="cls-5" cx="19.56" cy="32" rx="3.59" ry="21.33"/><path class="cls-3" d="M19.56,57.54c-3.3,0-6-11.43-6-25.54s2.68-25.54,6-25.54"/><path class="cls-6" d="M25.54,32a95.59,95.59,0,0,1-.42,13.63,47.56,47.56,0,0,1-1.19,6.79,18.43,18.43,0,0,1-1.19,3.35,7.47,7.47,0,0,1-1,1.63,3.05,3.05,0,0,1-2.15,1.13h-.07a1,1,0,0,1-.09-2h.16a1.15,1.15,0,0,0,.78-.41A5.71,5.71,0,0,0,21.2,55a16.87,16.87,0,0,0,1.3-3,46.35,46.35,0,0,0,1.64-6.5A95.1,95.1,0,0,0,25.54,32Z"/><path class="cls-6" d="M19.56,5.46A3.05,3.05,0,0,1,21.71,6.6a7.47,7.47,0,0,1,1,1.63,18.43,18.43,0,0,1,1.19,3.35,47.55,47.55,0,0,1,1.19,6.79A95.59,95.59,0,0,1,25.54,32a95.1,95.1,0,0,0-1.41-13.48A46.35,46.35,0,0,0,22.5,12a16.87,16.87,0,0,0-1.3-3,5.71,5.71,0,0,0-.86-1.17,1.15,1.15,0,0,0-.78-.41,1,1,0,0,1-.23-2h.23Z"/><ellipse class="cls-7" cx="38.5" cy="32" rx="5.98" ry="25.54"/><ellipse class="cls-8" cx="38.5" cy="32" rx="3.59" ry="21.33"/><path class="cls-3" d="M38.5,6.46c3.3,0,6,11.43,6,25.54s-2.68,25.54-6,25.54"/><path class="cls-6" d="M38.5,58.54a3.05,3.05,0,0,1-2.15-1.13,7.47,7.47,0,0,1-1-1.63,18.43,18.43,0,0,1-1.19-3.35,47.56,47.56,0,0,1-1.19-6.79A95.59,95.59,0,0,1,32.52,32a95.1,95.1,0,0,0,1.41,13.48A46.35,46.35,0,0,0,35.56,52a16.87,16.87,0,0,0,1.3,3,5.71,5.71,0,0,0,.86,1.17,1.15,1.15,0,0,0,.78.41,1,1,0,1,1,.23,2H38.5Z"/><path class="cls-6" d="M32.52,32a95.59,95.59,0,0,1,.42-13.63,47.56,47.56,0,0,1,1.19-6.79,18.43,18.43,0,0,1,1.19-3.35,7.47,7.47,0,0,1,1-1.63A3.05,3.05,0,0,1,38.5,5.46h.07a1,1,0,1,1,.09,2H38.5a1.15,1.15,0,0,0-.78.41A5.71,5.71,0,0,0,36.86,9a16.87,16.87,0,0,0-1.3,3,46.35,46.35,0,0,0-1.64,6.5A95.1,95.1,0,0,0,32.52,32Z"/><path class="cls-9" d="M55.63,38.83l1.24-1.91,2.41-.4A4.78,4.78,0,0,0,56,35a14.32,14.32,0,0,1-1.92,2.9Z"/><path class="cls-6" d="M56,35a4.78,4.78,0,0,1,3.29,1.48l-2.41.4-1.24,1.91-1.56-.89A14.32,14.32,0,0,0,56,35m0-1.72a1.72,1.72,0,0,0-1.53.94,12.2,12.2,0,0,1-1.58,2.44,1.72,1.72,0,0,0,.34,2.74l1.56.89a1.72,1.72,0,0,0,2.29-.56l.82-1.27,1.66-.28a1.72,1.72,0,0,0,1-2.79,6.46,6.46,0,0,0-4.53-2.09Z"/><path class="cls-10" d="M39.8,22.34A1.88,1.88,0,0,0,39,24.89l1.24,2.4a.6.6,0,0,1-.22.78l-3.48,2.09-.48-.29a.61.61,0,0,0-.89.3l0,.11h-.61a.71.71,0,0,0-.6,1.08l.32.5a.71.71,0,0,0,.85.28l.66-.25.35-.13,5.11-2a3,3,0,0,0,1.82-3.53l-.71-2.76A1.81,1.81,0,0,0,39.8,22.34Z"/><path class="cls-11" d="M34.75,32a.71.71,0,0,1,.6-1.08H36l0-.11a.61.61,0,0,1,.89-.3l.48.29,3.48-2.09a.6.6,0,0,0,.22-.78l-1.24-2.4A1.88,1.88,0,0,1,40.6,23a1.8,1.8,0,0,1,1.5,0,1.8,1.8,0,0,0-2.29-.63A1.88,1.88,0,0,0,39,24.89l1.24,2.4a.6.6,0,0,1-.22.78l-3.48,2.09-.48-.29a.61.61,0,0,0-.89.3l0,.11h-.61a.71.71,0,0,0-.6,1.08l.32.5a.7.7,0,0,0,.57.32Z"/><path class="cls-6" d="M40.59,22.16a1.81,1.81,0,0,1,1.75,1.36l.71,2.76a3,3,0,0,1-1.82,3.53l-5.11,2-.35.13-.66.25a.71.71,0,0,1-.85-.28l-.32-.5a.71.71,0,0,1,.6-1.08h.61l0-.11a.61.61,0,0,1,.89-.3l.48.29,3.4-2a.69.69,0,0,0,.26-.91L39,24.89a1.88,1.88,0,0,1,.77-2.55,1.82,1.82,0,0,1,.79-.18m0-1.72a3.51,3.51,0,0,0-1.53.35,3.43,3.43,0,0,0-1.77,2,3.71,3.71,0,0,0,.22,2.86l.75,1.46-1.74,1a2.34,2.34,0,0,0-2.21.39,2.42,2.42,0,0,0-1.81,3.71l.32.5a2.42,2.42,0,0,0,2.91,1l.66-.25.35-.13,5.11-2a4.69,4.69,0,0,0,2.87-5.57L44,23.08a3.53,3.53,0,0,0-3.41-2.65Z"/><path class="cls-12" d="M47.95,36.24l-5.3-3.44a36.91,36.91,0,0,0-5.88,5.47c.11,1.36.26,2.67.46,3.93a5.24,5.24,0,0,1,2.94-1.35c2.14-.24,5.63-.9,8.08-2.74A9.08,9.08,0,0,0,47.95,36.24Z"/><path class="cls-13" d="M48,36.54c0-.1,0-.2-.07-.3l-5.3-3.44a36.91,36.91,0,0,0-5.88,5.47c0,.55.1,1.08.16,1.61a37.37,37.37,0,0,1,6.56-6.27Z"/><path class="cls-6" d="M42.65,32.8l5.3,3.44a9.08,9.08,0,0,1,.3,1.87c-2.45,1.84-5.94,2.5-8.08,2.74a5.24,5.24,0,0,0-2.94,1.35c-.2-1.26-.35-2.57-.46-3.93a36.91,36.91,0,0,1,5.88-5.47m0-1.72a1.72,1.72,0,0,0-1,.31,38.43,38.43,0,0,0-6.19,5.74,1.72,1.72,0,0,0-.42,1.26c.1,1.33.26,2.7.48,4.06a1.72,1.72,0,0,0,2.85,1,3.51,3.51,0,0,1,2-.92c2.58-.29,6.23-1,8.92-3.07A1.72,1.72,0,0,0,50,38a10.83,10.83,0,0,0-.36-2.22,1.72,1.72,0,0,0-.72-1l-5.3-3.44a1.72,1.72,0,0,0-.94-.28Z"/><path class="cls-13" d="M54.2,37.77l-.1,0-3.36,3.41A31.77,31.77,0,0,0,49.49,34a8.48,8.48,0,0,0-6.26.54,13.83,13.83,0,0,0,3.47,8.24c3.66,4.33,6.86-.88,8.12-3.45A7.29,7.29,0,0,0,54.2,37.77Z"/><path class="cls-14" d="M47.8,42.78a13.83,13.83,0,0,1-3.47-8.24,8.37,8.37,0,0,1,3.19-.87c-.16,0-.32,0-.49,0a8.4,8.4,0,0,0-3.81.9,13.83,13.83,0,0,0,3.47,8.24c1.21,1.44,2.37,1.82,3.43,1.6A4.35,4.35,0,0,1,47.8,42.78Z"/><path class="cls-6" d="M47,33.64a8.48,8.48,0,0,1,2.45.36,31.77,31.77,0,0,1,1.25,7.16l3.36-3.41.1,0a7.29,7.29,0,0,1,.63,1.57c-.91,1.86-2.84,5.11-5.23,5.11a3.87,3.87,0,0,1-2.89-1.66,13.83,13.83,0,0,1-3.47-8.24,8.4,8.4,0,0,1,3.81-.9m0-1.72A10.18,10.18,0,0,0,42.45,33a1.72,1.72,0,0,0-.94,1.61,15.59,15.59,0,0,0,3.88,9.27,5.52,5.52,0,0,0,4.2,2.27c3.14,0,5.42-3.3,6.77-6.07a1.72,1.72,0,0,0,.11-1.21,9,9,0,0,0-.78-1.94,1.72,1.72,0,0,0-1.09-.84l-.1,0a1.72,1.72,0,0,0-1.64.46l-.83.84a26.67,26.67,0,0,0-.92-3.91A1.72,1.72,0,0,0,50,32.35a10.2,10.2,0,0,0-3-.44Z"/><path class="cls-6" d="M47.83,9.54c-3.5-.45-3.37,3.37-3.37,3.37l.86,2.63c6.33,2.12,7.48-2.05,7.48-2.05C51.21,14.1,51.33,10,47.83,9.54Z"/><path class="cls-6" d="M47.28,9.51a4.32,4.32,0,0,1,.55,0c3.26.42,3.37,4,4.67,4a.87.87,0,0,0,.31-.06s-.74,2.65-4.24,2.65a10.27,10.27,0,0,1-3.24-.6l-.86-2.63s-.12-3.41,2.82-3.41m5.53,4h0m-5.53-5.7h0a4.25,4.25,0,0,0-3.14,1.26A5.78,5.78,0,0,0,42.75,13a1.72,1.72,0,0,0,.08.48l.86,2.63a1.72,1.72,0,0,0,1.09,1.09,12,12,0,0,0,3.79.69,5.9,5.9,0,0,0,5.86-3.78,1.72,1.72,0,0,0-1.48-2.3l-.21-.36a6.19,6.19,0,0,0-4.68-3.58,6.06,6.06,0,0,0-.77-.05Z"/><path class="cls-15" d="M45.56,13.87s-.13-3.82,3.37-3.37a3.78,3.78,0,0,1,1.48.51,3.79,3.79,0,0,0-2.57-1.47c-3.5-.45-3.37,3.37-3.37,3.37l.86,2.63c.3.1.58.17.86.25Z"/><path class="cls-9" d="M45,20.57l-4.88,1.55s-1.76,3.63,1.12,5.46.3,5.83.3,5.83,7,2.45,9-1.76C53,26.32,47.34,20.46,45,20.57Z"/><path class="cls-16" d="M42.89,33.78c0-.08,2.55-4-.3-5.82s-1.12-5.46-1.12-5.46L46.31,21A2.83,2.83,0,0,0,45,20.57l-4.88,1.55s-1.76,3.63,1.12,5.46.3,5.83.3,5.83A14.05,14.05,0,0,0,42.89,33.78Z"/><path class="cls-6" d="M45,20.57c2.41,0,7.95,5.8,5.44,11.08-.92,1.94-2.91,2.46-4.78,2.46a14.34,14.34,0,0,1-4.19-.71s2.58-4-.3-5.83-1.12-5.46-1.12-5.46L45,20.57H45m0-1.72h-.14a1.72,1.72,0,0,0-.44.08l-4.88,1.55a1.72,1.72,0,0,0-1,.89C37.7,23.1,37,26.93,40.29,29c.26.17.75.48.49,1.7a6.21,6.21,0,0,1-.72,1.75A1.72,1.72,0,0,0,40.94,35a16.09,16.09,0,0,0,4.76.8c3.88,0,5.58-1.87,6.33-3.44a9.3,9.3,0,0,0-.9-9.06c-1.36-2.16-3.85-4.48-6.09-4.48Z"/><path class="cls-6" d="M41.43,10.79a4.65,4.65,0,0,1,4.67,3.45c.68,2.88-2.61,4.67-2.61,4.67s.11-1.39-.6-1.39-.66,1-.66,1H41.6a2.86,2.86,0,0,0-.8-2L40.23,16a3.16,3.16,0,0,1-2.53,1,7.1,7.1,0,0,1-2-.31c.53-4.1,3.22-5.87,5.74-5.87m0-1.72c-3.23,0-6.78,2.28-7.45,7.37a1.72,1.72,0,0,0,1.16,1.85,8.77,8.77,0,0,0,2.56.4,5.69,5.69,0,0,0,2.16-.39,1.15,1.15,0,0,1,0,.24,1.72,1.72,0,0,0,1.72,1.72h.81l.14.1a1.72,1.72,0,0,0,1.75.07c1.65-.9,4.25-3.29,3.47-6.58a6.39,6.39,0,0,0-6.34-4.77Z"/><path class="cls-11" d="M36.59,14.47h7.87a0,0,0,0,1,0,0v4.17a3.7,3.7,0,0,1-3.7,3.7H38.6a2,2,0,0,1-2-2V14.47A0,0,0,0,1,36.59,14.47Z"/><path class="cls-10" d="M41.75,22.11a4,4,0,0,0,2.72-3.81V14.47H40.53v5.68A2.19,2.19,0,0,0,41.75,22.11Z"/><path class="cls-10" d="M40.64,16.4l.59,1.06a2.86,2.86,0,0,1,.8,2h.62s0-1,.66-1,.6,1.39.6,1.39l.31-.19a4,4,0,0,0,.24-1.32V14.47H37.85a7.64,7.64,0,0,0-1.26,2.6v1.38A3.9,3.9,0,0,0,40.64,16.4Z"/><path class="cls-17" d="M36.59,14.47h7.87a0,0,0,0,1,0,0v4.17a3.7,3.7,0,0,1-3.7,3.7H38.6a2,2,0,0,1-2-2V14.47A0,0,0,0,1,36.59,14.47Z"/><path class="cls-6" d="M35.68,16.66s3.12,1,4.55-.69l.56.58a2.86,2.86,0,0,1,.8,2h.62s0-1,.66-1,.6,1.39.6,1.39,3.3-1.79,2.61-4.67C45,9.46,36.67,9.09,35.68,16.66Z"/><path class="cls-15" d="M43.43,11.18c-2.89-1.19-7.06.24-7.74,5.48a7.16,7.16,0,0,0,1.19.26C37.49,12.41,40.71,10.76,43.43,11.18Z"/><circle class="cls-6" cx="38.15" cy="17.69" r="0.16"/><circle class="cls-6" cx="39.71" cy="17.48" r="0.16"/><path class="cls-10" d="M45.16,22.81a1.88,1.88,0,0,0,1.43,2.25l2.62.63a.6.6,0,0,1,.45.68l-.69,4-.53.17a.61.61,0,0,0-.35.87l.06.11-.4.46a.71.71,0,0,0,.43,1.16l.59.09a.71.71,0,0,0,.77-.46l.24-.67.13-.35,1.86-5.14a3,3,0,0,0-1.49-3.68l-2.55-1.26A1.81,1.81,0,0,0,45.16,22.81Z"/><path class="cls-11" d="M49.19,33a.71.71,0,0,1-.43-1.16l.4-.46-.06-.11a.61.61,0,0,1,.35-.87l.53-.17.69-4a.6.6,0,0,0-.45-.68l-2.62-.63a1.88,1.88,0,0,1-1.43-2.25,1.8,1.8,0,0,1,1-1.15,1.8,1.8,0,0,0-2,1.32,1.88,1.88,0,0,0,1.43,2.25l2.62.63a.6.6,0,0,1,.45.68l-.69,4-.53.17a.61.61,0,0,0-.35.87l.06.11-.4.46a.71.71,0,0,0,.43,1.16l.59.09a.7.7,0,0,0,.62-.22Z"/><path class="cls-6" d="M46.91,21.46a1.8,1.8,0,0,1,.8.19l2.55,1.26a3,3,0,0,1,1.49,3.68L49.9,31.73l-.13.35-.24.67a.71.71,0,0,1-.66.47h-.1l-.59-.09A.71.71,0,0,1,47.74,32l.4-.46-.06-.11a.61.61,0,0,1,.35-.87l.53-.17.68-3.91a.69.69,0,0,0-.52-.79l-2.53-.6a1.88,1.88,0,0,1-1.43-2.25,1.81,1.81,0,0,1,1.75-1.35m0-1.72a3.54,3.54,0,0,0-3.41,2.62A3.43,3.43,0,0,0,43.88,25a3.71,3.71,0,0,0,2.31,1.7l1.6.38-.35,2A2.33,2.33,0,0,0,46.3,31a2.42,2.42,0,0,0,1.63,3.8l.59.09.35,0a2.43,2.43,0,0,0,2.28-1.6l.24-.67.13-.35,1.86-5.14A4.69,4.69,0,0,0,51,21.36l-2.55-1.26a3.54,3.54,0,0,0-1.56-.36Z"/><path class="cls-9" d="M8.18,46.62l-1.09,2-2.38.58a4.78,4.78,0,0,0,3.39,1.22,14.33,14.33,0,0,1,1.7-3Z"/><path class="cls-6" d="M8.18,46.62l1.63.77a14.33,14.33,0,0,0-1.7,3H8a4.76,4.76,0,0,1-3.25-1.23l2.38-.58,1.09-2m0-1.72a1.72,1.72,0,0,0-1.51.9l-.72,1.33-1.64.4a1.72,1.72,0,0,0-.82,2.87A6.45,6.45,0,0,0,8,52.15h.19a1.72,1.72,0,0,0,1.54-1.05,12.21,12.21,0,0,1,1.39-2.55,1.72,1.72,0,0,0-.54-2.7l-1.63-.77a1.71,1.71,0,0,0-.73-.16Z"/><path class="cls-12" d="M19.44,33A36.58,36.58,0,0,0,8.89,45.61a12.31,12.31,0,0,0,1.5.8l3.47-3.85a5.27,5.27,0,0,1,3.33-1.72c.62-.07,1.36-.18,2.15-.34.14-1.43.22-2.89.22-4.4C19.56,35,19.51,34,19.44,33Z"/><path class="cls-6" d="M19.44,33c.07,1,.12,2.07.12,3.13,0,1.51-.08,3-.22,4.4h0c-.79.16-1.53.27-2.15.34a5.27,5.27,0,0,0-3.33,1.72l-3.47,3.85a12.3,12.3,0,0,1-1.5-.8c.22-.47.46-.93.7-1.38l.24-.42c.17-.3.34-.6.52-.89l.29-.46c.17-.27.34-.54.52-.8l.3-.44.54-.75.3-.4.58-.73.28-.34.63-.73L14,38l.71-.78.13-.14c.86-.9,1.67-1.68,2.37-2.31l.09-.08.56-.49.16-.13.41-.34.17-.14.29-.23.18-.14.16-.12.19-.14m0-1.72a1.72,1.72,0,0,0-1,.34l-.15.12,0,0-.18.13-.15.12,0,0-.31.24-.18.15-.43.36-.16.14-.59.51-.09.08c-.85.76-1.69,1.57-2.48,2.41l-.08.09,0,0-.74.81-.16.19-.07.08-.65.77-.25.31,0,0L11,39l-.32.42-.57.79,0,.06-.28.4c-.19.27-.37.56-.55.84l-.08.13L8.89,42c-.19.31-.37.62-.55.94l-.08.15-.17.3c-.28.51-.52,1-.75,1.46A1.72,1.72,0,0,0,8,47.06,14.11,14.11,0,0,0,9.69,48a1.72,1.72,0,0,0,2-.42l3.47-3.85a3.55,3.55,0,0,1,2.25-1.16c.73-.08,1.52-.21,2.3-.36a1.72,1.72,0,0,0,1.37-1.52c.15-1.54.22-3.08.22-4.56,0-1,0-2-.12-3.25a1.72,1.72,0,0,0-1.71-1.6Z"/><path class="cls-13" d="M19.52,34.37c0-.47,0-.94-.07-1.4A36.58,36.58,0,0,0,8.89,45.61c.31.19.64.37,1,.54A36.56,36.56,0,0,1,19.52,34.37Z"/><path class="cls-18" d="M19.77,44.26a38.08,38.08,0,0,0,.8-8.8,38,38,0,0,0-.76-6.23"/><path class="cls-18" d="M37.21,46.08a31.11,31.11,0,0,1-1.43-10.35"/><ellipse class="cls-19" cx="19.24" cy="24.31" rx="0.4" ry="0.78"/><ellipse class="cls-19" cx="19.24" cy="20.71" rx="0.4" ry="0.78"/><ellipse class="cls-19" cx="19.24" cy="17.11" rx="0.4" ry="0.78"/><path class="cls-20" d="M27.75,8.85,24.32,6.35a.48.48,0,0,1,0-.77l3.43-2.49a.48.48,0,0,1,.76.39h0A.48.48,0,0,0,29,4h3.19a.48.48,0,0,1,.48.48V7.51a.48.48,0,0,1-.48.48H29a.48.48,0,0,0-.48.48h0A.48.48,0,0,1,27.75,8.85Z"/><path class="cls-21" d="M27.75,8.85,25.4,7.14l-.66-.87h5.51a1.63,1.63,0,0,1,1.15.48l1.1,1.1a.47.47,0,0,1-.33.14H29a.5.5,0,0,0-.48.5A.48.48,0,0,1,27.75,8.85Z"/><path class="cls-22" d="M32.5,5.12H29.31a.48.48,0,0,1-.48-.48.48.48,0,0,0-.76-.39L24.76,6.67l-.43-.32a.48.48,0,0,1,0-.77l3.43-2.49a.48.48,0,0,1,.76.39A.48.48,0,0,0,29,4h3.19a.48.48,0,0,1,.48.48v.72A.47.47,0,0,0,32.5,5.12Z"/><path class="cls-3" d="M27.75,8.85,24.32,6.35a.48.48,0,0,1,0-.77l3.43-2.49a.48.48,0,0,1,.76.39h0A.48.48,0,0,0,29,4h3.19a.48.48,0,0,1,.48.48V7.51a.48.48,0,0,1-.48.48H29a.48.48,0,0,0-.48.48h0A.48.48,0,0,1,27.75,8.85Z"/><path class="cls-7" d="M30.31,55.15l3.43,2.49a.48.48,0,0,1,0,.77l-3.43,2.49a.48.48,0,0,1-.76-.39h0a.48.48,0,0,0-.48-.48H25.89a.48.48,0,0,1-.48-.48V56.49a.48.48,0,0,1,.48-.48h3.19a.48.48,0,0,0,.48-.48h0A.48.48,0,0,1,30.31,55.15Z"/><path class="cls-8" d="M30.31,55.15l2.34,1.7.66.87H27.8a1.63,1.63,0,0,1-1.15-.48l-1.1-1.1a.47.47,0,0,1,.33-.14h3.19a.5.5,0,0,0,.48-.5A.48.48,0,0,1,30.31,55.15Z"/><path class="cls-22" d="M25.56,58.88h3.19a.48.48,0,0,1,.48.48.48.48,0,0,0,.76.39l3.31-2.41.43.32a.48.48,0,0,1,0,.77l-3.43,2.49a.48.48,0,0,1-.76-.39.48.48,0,0,0-.48-.48H25.89a.48.48,0,0,1-.48-.48v-.72A.47.47,0,0,0,25.56,58.88Z"/><path class="cls-3" d="M30.31,55.15l3.43,2.49a.48.48,0,0,1,0,.77l-3.43,2.49a.48.48,0,0,1-.76-.39h0a.48.48,0,0,0-.48-.48H25.89a.48.48,0,0,1-.48-.48V56.49a.48.48,0,0,1,.48-.48h3.19a.48.48,0,0,0,.48-.48h0A.48.48,0,0,1,30.31,55.15Z"/><line class="cls-23" x1="28.56" y1="15.1" x2="29.06" y2="15.1"/><line class="cls-24" x1="30.69" y1="15.1" x2="32.32" y2="15.1"/><line class="cls-23" x1="33.14" y1="15.1" x2="33.64" y2="15.1"/><polygon class="cls-23" points="26.96 15.1 28.47 15.99 28.47 14.21 26.96 15.1"/><line class="cls-23" x1="29.49" y1="48.9" x2="28.99" y2="48.9"/><line class="cls-24" x1="27.37" y1="48.9" x2="25.74" y2="48.9"/><line class="cls-23" x1="24.92" y1="48.9" x2="24.42" y2="48.9"/><polygon class="cls-23" points="31.1 48.9 29.59 48.01 29.59 49.79 31.1 48.9"/><circle class="cls-1" cx="7.98" cy="6.9" r="2.9"/><circle class="cls-1" cx="7.19" cy="13.64" r="0.81"/><circle class="cls-1" cx="10.62" cy="12.69" r="0.75"/><circle class="cls-1" cx="9.73" cy="15.45" r="0.35"/><circle class="cls-1" cx="13.46" cy="5.96" r="0.71"/><circle class="cls-1" cx="13.11" cy="9.29" r="0.36"/></svg>